<?xml version="1.0" encoding="iso-8859-1"?>
<!-- Generator: Adobe Illustrator 19.0.0, SVG Export Plug-In . SVG Version: 6.00 Build 0)  -->
<svg version="1.1" id="Layer_1" xmlns="http://www.w3.org/2000/svg" xmlns:xlink="http://www.w3.org/1999/xlink" x="0px" y="0px"
	 viewBox="0 0 296.998 296.998" style="enable-background:new 0 0 296.998 296.998;" xml:space="preserve">
<g id="XMLID_1106_">
	<circle id="XMLID_1107_" style="fill:#FF5959;" cx="106.499" cy="55" r="24"/>
	<circle id="XMLID_1108_" style="fill:#FF5959;" cx="148.499" cy="41.999" r="28"/>
	<circle id="XMLID_1109_" style="fill:#FF5959;" cx="190.499" cy="55" r="24"/>
	<path id="XMLID_584_" style="fill:#FFE165;" d="M269.181,282.999H27.817C12.518,282.999,0,270.482,0,255.182l0,0
		c0-15.299,12.518-27.817,27.817-27.817h241.364c15.299,0,27.817,12.518,27.817,27.817l0,0
		C296.998,270.482,284.48,282.999,269.181,282.999z"/>
	<path id="XMLID_583_" style="fill:#FFE165;" d="M269.181,173.243H27.817C12.518,173.243,0,160.725,0,145.426l0,0
		c0-15.299,12.518-27.817,27.817-27.817h241.364c15.299,0,27.817,12.518,27.817,27.817l0,0
		C296.998,160.725,284.48,173.243,269.181,173.243z"/>
	<path id="XMLID_582_" style="fill:#FFA250;" d="M269.181,228.121H27.817C12.518,228.121,0,215.603,0,200.304l0,0
		c0-15.299,12.518-27.817,27.817-27.817h241.364c15.299,0,27.817,12.518,27.817,27.817l0,0
		C296.998,215.603,284.48,228.121,269.181,228.121z"/>
	<path id="XMLID_581_" style="fill:#FFA250;" d="M269.181,118.365H27.817C12.518,118.365,0,105.847,0,90.548l0,0
		c0-15.299,12.518-27.817,27.817-27.817h241.364c15.299,0,27.817,12.518,27.817,27.817l0,0
		C296.998,105.847,284.48,118.365,269.181,118.365z"/>
	<path id="XMLID_1110_" style="fill:#FFFEB9;" d="M47,62.731v126.293c0,15.299,12.518,27.817,27.817,27.817l0,0
		c15.299,0,27.817-12.518,27.817-27.817V62.731H47z"/>
	<path id="XMLID_1111_" style="fill:#FFFEB9;" d="M101.878,62.731v82.683c0,15.299,12.518,27.817,27.817,27.817l0,0
		c15.299,0,27.817-12.518,27.817-27.817V62.731H101.878z"/>
</g>
<g>
</g>
<g>
</g>
<g>
</g>
<g>
</g>
<g>
</g>
<g>
</g>
<g>
</g>
<g>
</g>
<g>
</g>
<g>
</g>
<g>
</g>
<g>
</g>
<g>
</g>
<g>
</g>
<g>
</g>
</svg>
