<?xml version="1.0" encoding="iso-8859-1"?>
<!-- Generator: Adobe Illustrator 19.0.0, SVG Export Plug-In . SVG Version: 6.00 Build 0)  -->
<svg version="1.1" id="Layer_1" xmlns="http://www.w3.org/2000/svg" xmlns:xlink="http://www.w3.org/1999/xlink" x="0px" y="0px"
	 viewBox="0 0 512 512" style="enable-background:new 0 0 512 512;" xml:space="preserve">
<circle style="fill:#FE5C93;" cx="76.278" cy="278.465" r="27.167"/>
<g>
	<path style="fill:#B0CE6F;" d="M36.229,328.963c-9.695-9.696-13.436-23.954-9.764-37.211c0.98-3.537,3.743-6.3,7.28-7.281
		c13.258-3.673,27.514,0.069,37.21,9.766c9.696,9.696,13.438,23.954,9.766,37.211c-0.98,3.537-3.743,6.3-7.28,7.28
		C60.184,342.399,45.924,338.658,36.229,328.963z"/>
	<path style="fill:#B0CE6F;" d="M433.357,263.932c9.696-9.695,23.954-13.436,37.211-9.764c3.537,0.98,6.3,3.743,7.281,7.28
		c3.673,13.258-0.069,27.514-9.766,37.21c-9.697,9.696-23.954,13.438-37.211,9.766c-3.537-0.98-6.3-3.743-7.28-7.28
		C419.92,287.888,423.661,273.628,433.357,263.932z"/>
</g>
<path style="fill:#FFF393;" d="M318.796,131.029c0,5.495-4.454,9.948-9.948,9.948H203.152c-5.494,0-9.948-4.453-9.948-9.948v-13.678
	c0-5.494,4.454-9.947,9.948-9.947h105.696c5.494,0,9.948,4.453,9.948,9.947V131.029z"/>
<path style="opacity:0.1;enable-background:new    ;" d="M225.698,131.029v-13.678c0-5.494,4.454-9.947,9.947-9.947h-32.494
	c-5.494,0-9.948,4.453-9.948,9.947v13.678c0,5.495,4.454,9.948,9.948,9.948h32.494C230.152,140.977,225.698,136.524,225.698,131.029
	z"/>
<path style="fill:#FFDB92;" d="M437.548,244.186c0,19.229-15.588,34.817-34.817,34.817H109.269
	c-19.229,0-34.817-15.588-34.817-34.817l0,0c0-19.229,15.589-34.817,34.817-34.817h293.462
	C421.96,209.369,437.548,224.958,437.548,244.186L437.548,244.186z"/>
<path style="opacity:0.1;enable-background:new    ;" d="M107.108,244.186c0-19.229,15.588-34.817,34.817-34.817h-32.656
	c-19.229,0-34.817,15.589-34.817,34.817c0,19.229,15.589,34.817,34.817,34.817h32.656
	C122.696,279.004,107.108,263.415,107.108,244.186z"/>
<g>
	<path style="fill:#C69C6D;" d="M433.633,251.82H330.188c-4.329,0-7.837-3.509-7.837-7.837c0-4.328,3.508-7.837,7.837-7.837h103.445
		c4.329,0,7.837,3.509,7.837,7.837C441.469,248.311,437.962,251.82,433.633,251.82z"/>
	<path style="fill:#C69C6D;" d="M303.02,251.82h-36.571c-4.329,0-7.837-3.509-7.837-7.837c0-4.328,3.508-7.837,7.837-7.837h36.571
		c4.329,0,7.837,3.509,7.837,7.837C310.857,248.311,307.349,251.82,303.02,251.82z"/>
</g>
<path style="fill:#FFE7B0;" d="M437.548,313.821c0,19.229-15.588,34.818-34.817,34.818H109.269
	c-19.229,0-34.817-15.588-34.817-34.818l0,0c0-19.228,15.589-34.817,34.817-34.817h293.462
	C421.96,279.004,437.548,294.593,437.548,313.821L437.548,313.821z"/>
<path d="M78.451,297.665c-0.715,0.08-1.438,0.131-2.173,0.131c-0.786,0-1.557-0.062-2.319-0.154
	c0.986,1.265,1.891,2.584,2.707,3.948C77.174,300.235,77.784,298.933,78.451,297.665z"/>
<path style="opacity:0.1;enable-background:new    ;" d="M107.108,313.821c0-19.228,15.588-34.817,34.817-34.817h-32.656
	c-19.229,0-34.817,15.589-34.817,34.817c0,19.229,15.589,34.818,34.817,34.818h32.656
	C122.696,348.639,107.108,333.05,107.108,313.821z"/>
<g>
	<path style="fill:#C69C6D;" d="M245.551,322.873H208.98c-4.328,0-7.837-3.509-7.837-7.837s3.509-7.837,7.837-7.837h36.571
		c4.328,0,7.837,3.509,7.837,7.837S249.879,322.873,245.551,322.873z"/>
	<path style="fill:#C69C6D;" d="M181.812,307.199H98.454c8.408,1.993,15.304,7.889,18.664,15.673h64.694
		c4.328,0,7.837-3.509,7.837-7.837S186.14,307.199,181.812,307.199z"/>
</g>
<path style="fill:#FFE7B0;" d="M437.548,174.552c0,19.228-15.588,34.817-34.817,34.817H109.269
	c-19.229,0-34.817-15.589-34.817-34.817l0,0c0-19.229,15.589-34.817,34.817-34.817h293.462
	C421.96,139.734,437.548,155.321,437.548,174.552L437.548,174.552z"/>
<path style="fill:#C69C6D;" d="M402.731,139.734H109.269c-17.54,0-32.044,12.971-34.458,29.843h41.919v73.988
	c0,7.898,6.402,14.3,14.3,14.3c7.897,0,14.299-6.402,14.299-14.3v-73.988h21.139v6.84c0,8.241,6.681,14.921,14.921,14.921
	c8.241,0,14.922-6.681,14.922-14.921v-6.84h155.435v13.679c0,8.241,6.682,14.922,14.921,14.922c8.241,0,14.922-6.681,14.922-14.922
	v-13.679h55.597C434.775,152.706,420.27,139.734,402.731,139.734z"/>
<path style="fill:#A768AA;" d="M118.944,338.204c0.253-1.489,0.391-3.016,0.391-4.576c0-15.004-12.164-27.167-27.167-27.167
	S65,318.624,65,333.628c0,1.561,0.139,3.088,0.392,4.576H118.944z"/>
<circle style="fill:#FE5C93;" cx="459.755" cy="329.665" r="27.167"/>
<circle style="fill:#A768AA;" cx="411.69" cy="326.53" r="27.167"/>
<path style="fill:#CCFFE8;" d="M48.891,357.343c9.555,27.502,35.672,47.252,66.428,47.252h281.362
	c30.757,0,56.874-19.751,66.428-47.252H48.891z"/>
<path style="opacity:0.1;enable-background:new    ;" d="M91.209,357.343H48.891c9.555,27.502,35.672,47.252,66.428,47.252h42.318
	C126.881,404.595,100.764,384.845,91.209,357.343z"/>
<path style="fill:#E5FFE8;" d="M504.163,354.787c0,9.159-7.424,16.584-16.585,16.584H24.42c-9.16,0-16.584-7.424-16.584-16.584l0,0
	c0-9.16,7.424-16.584,16.584-16.584h463.158C496.739,338.204,504.163,345.628,504.163,354.787L504.163,354.787z"/>
<path style="opacity:0.1;enable-background:new    ;" d="M50.155,354.787c0-9.16,7.424-16.584,16.584-16.584H24.42
	c-9.16,0-16.584,7.424-16.584,16.584c0,9.159,7.424,16.584,16.584,16.584h42.318C57.579,371.371,50.155,363.946,50.155,354.787z"/>
<path d="M494.696,331.429c0.03-0.585,0.063-1.17,0.063-1.764c0-12.767-6.872-23.954-17.11-30.069
	c8.648-11.34,11.627-26.254,7.752-40.241c-1.706-6.153-6.588-11.034-12.739-12.737c-4.005-1.11-8.144-1.673-12.299-1.673
	c-5.169,0-10.287,0.897-15.122,2.578c0.086-1.102,0.145-2.212,0.145-3.336c0-14.365-7.145-27.085-18.06-34.817
	c10.915-7.732,18.06-20.453,18.06-34.817c0-23.52-19.135-42.654-42.654-42.654h-76.098v-14.546c0-9.806-7.979-17.784-17.785-17.784
	H203.152c-9.806,0-17.785,7.978-17.785,17.784v14.546h-76.099c-21.538,0-39.387,16.05-42.244,36.815
	c-0.003,0.028-0.007,0.055-0.01,0.084c-0.255,1.884-0.399,3.802-0.399,5.755c0,14.555,7.333,27.075,18.494,34.51
	c-11.161,7.701-18.494,20.57-18.494,35.125c0,0.213,0.017,0.422,0.02,0.634c-13.658,3.92-23.917,15.943-25.215,30.512
	c-3.301,0.182-6.577,0.702-9.768,1.586c-6.153,1.706-11.034,6.588-12.737,12.739c-3.93,14.182-0.799,29.31,8.131,40.709H24.42
	C10.955,330.367,0,341.322,0,354.787c0,13.466,10.955,24.42,24.42,24.42h26.971c14.388,20.451,38.071,33.225,63.928,33.225h199.195
	c4.329,0,7.837-3.509,7.837-7.837c0-4.328-3.508-7.837-7.837-7.837H115.319c-16.548,0-31.977-6.553-43.378-17.551h368.118
	c-11.401,10.999-26.83,17.551-43.378,17.551h-47.685c-4.329,0-7.837,3.509-7.837,7.837c0,4.328,3.508,7.837,7.837,7.837h47.685
	c25.856,0,49.539-12.774,63.929-33.225h26.969c13.467,0,24.421-10.955,24.421-24.42C512,343.797,504.701,334.482,494.696,331.429z
	 M459.755,310.334c10.659,0,19.331,8.672,19.331,19.331c0,0.236-0.013,0.468-0.021,0.702h-38.619
	c-0.009-0.234-0.022-0.466-0.022-0.702C440.424,319.006,449.096,310.334,459.755,310.334z M468.477,261.721
	c0.879,0.243,1.577,0.941,1.82,1.819c2.919,10.54-0.052,21.874-7.755,29.577c-0.549,0.549-1.124,1.068-1.714,1.572
	c-0.357-0.012-0.713-0.028-1.073-0.028c-5.166,0-10.063,1.143-14.479,3.163l10.617-10.618c3.06-3.06,3.06-8.023,0-11.082
	c-3.062-3.061-8.023-3.061-11.083,0l-9.848,9.847c-1.137-1.317-2.349-2.565-3.633-3.737c1.409-4.746,3.962-9.153,7.569-12.76
	c5.63-5.629,13.452-8.857,21.463-8.857C463.103,260.618,465.833,260.989,468.477,261.721z M424.774,330.367h-32.013
	c-0.253-1.241-0.402-2.52-0.402-3.836c0-10.659,8.672-19.331,19.331-19.331c6.638,0,12.504,3.366,15.986,8.478
	c-1.877,4.287-2.925,9.015-2.925,13.987C424.751,329.901,424.769,330.132,424.774,330.367z M376.904,330.367H127.015
	c-1.651-17.778-16.645-31.743-34.847-31.743c-1.848,0-3.663,0.146-5.436,0.424c4.825-7.339,13.115-12.208,22.536-12.208H402.73
	c6.095,0,11.722,2.033,16.244,5.454c-2.35-0.502-4.787-0.768-7.285-0.768c-19.301,0-35.004,15.703-35.004,35.004
	C376.686,327.828,376.765,329.106,376.904,330.367z M111.201,330.367H73.134c1.557-9.108,9.489-16.069,19.034-16.069
	S109.644,321.259,111.201,330.367z M402.731,201.532h-22.517c5.587-4.151,9.214-10.798,9.214-18.276v-5.842h40.129
	C428.124,190.95,416.641,201.532,402.731,201.532z M201.04,117.351c0-1.164,0.947-2.111,2.112-2.111h105.696
	c1.164,0,2.112,0.947,2.112,2.111v14.546H201.04V117.351z M109.269,147.57h293.462c10.244,0,19.172,5.739,23.739,14.17h-44.877
	c-4.329,0-7.837,3.509-7.837,7.837v13.679c0,3.907-3.179,7.085-7.085,7.085c-3.906,0-7.084-3.179-7.084-7.085v-13.679
	c0-4.328-3.508-7.837-7.837-7.837h-26.786c-4.329,0-7.837,3.509-7.837,7.837c0,4.328,3.508,7.837,7.837,7.837h18.948v5.842
	c0,7.478,3.628,14.126,9.213,18.276H153.166v-24.118h5.488c0.523,12.088,10.522,21.761,22.737,21.761
	c12.215,0,22.213-9.673,22.737-21.761h89.488c4.329,0,7.837-3.509,7.837-7.837c0-4.328-3.508-7.837-7.837-7.837h-97.304
	c-4.328,0-7.837,3.509-7.837,7.837v6.84c0,3.907-3.179,7.084-7.085,7.084s-7.084-3.179-7.084-7.084v-6.84
	c0-4.328-3.509-7.837-7.837-7.837H145.33c-4.328,0-7.837,3.509-7.837,7.837v73.988c0,3.564-2.9,6.464-6.463,6.464
	c-3.564,0-6.464-2.9-6.464-6.464v-73.988c0-4.328-3.509-7.837-7.837-7.837H85.529C90.098,153.31,99.025,147.57,109.269,147.57z
	 M82.441,177.414h26.452v24.109C95.153,201.334,83.862,190.827,82.441,177.414z M108.893,217.215v26.35
	c0,12.206,9.931,22.137,22.137,22.137s22.136-9.931,22.136-22.137v-26.36H402.73c14.877,0,26.98,12.103,26.98,26.98
	c0,14.877-12.103,26.98-26.98,26.98H109.269c-14.877,0-26.98-12.103-26.98-26.98C82.288,229.435,94.189,217.418,108.893,217.215z
	 M69.789,260.278c3.099,7.566,8.299,14.058,14.887,18.725c-3.466,2.456-6.548,5.418-9.146,8.772
	c-5.247-4.942-11.631-8.573-18.517-10.615C57.538,269.351,62.71,262.813,69.789,260.278z M34.018,293.843
	c0.243-0.879,0.941-1.577,1.819-1.82c2.642-0.732,5.371-1.103,8.113-1.103c8.012,0,15.834,3.228,21.464,8.858
	c0.961,0.961,1.844,1.981,2.655,3.047c-0.578,2.16-0.984,4.388-1.216,6.666c-0.699,0.732-1.368,1.494-2.001,2.285l-5.349-5.349
	c-3.061-3.06-8.023-3.06-11.082,0c-3.061,3.06-3.061,8.023,0,11.082l9.398,9.398c-0.222,1.135-0.389,2.288-0.497,3.46h-4.654
	c-4.071-1.507-7.815-3.863-10.897-6.945C34.067,315.717,31.097,304.384,34.018,293.843z M487.579,363.534H24.42
	c-4.823,0-8.747-3.924-8.747-8.747c0-4.823,3.924-8.747,8.747-8.747h463.158c4.823,0,8.748,3.924,8.748,8.747
	C496.327,359.611,492.402,363.534,487.579,363.534z"/>
<g>
</g>
<g>
</g>
<g>
</g>
<g>
</g>
<g>
</g>
<g>
</g>
<g>
</g>
<g>
</g>
<g>
</g>
<g>
</g>
<g>
</g>
<g>
</g>
<g>
</g>
<g>
</g>
<g>
</g>
</svg>
